<?xml version="1.0" standalone="no"?>
<!DOCTYPE svg PUBLIC "-//W3C//DTD SVG 20010904//EN"
 "http://www.w3.org/TR/2001/REC-SVG-20010904/DTD/svg10.dtd">
<svg version="1.0" xmlns="http://www.w3.org/2000/svg"
 width="192.000000pt" height="192.000000pt" viewBox="0 0 192.000000 192.000000"
 preserveAspectRatio="xMidYMid meet">

<g transform="translate(0.000000,192.000000) scale(0.100000,-0.100000)"
fill="#000000" stroke="none">
<path d="M900 1909 c-118 -36 -275 -209 -380 -418 -18 -36 -53 -86 -78 -113
-141 -149 -255 -358 -307 -561 -31 -123 -49 -281 -38 -332 20 -90 92 -40 192
132 48 82 48 83 55 52 3 -17 6 -46 6 -64 0 -17 9 -66 19 -108 62 -242 197
-351 461 -371 l75 -6 -55 22 c-75 29 -129 67 -189 135 -142 159 -222 451 -192
699 29 241 115 426 250 539 l42 34 52 -27 c46 -24 63 -27 147 -27 84 0 101 3
147 27 l52 27 39 -33 c120 -99 209 -271 242 -466 17 -95 17 -296 1 -375 -33
-162 -101 -309 -187 -403 -60 -66 -98 -93 -183 -129 l-56 -23 75 6 c313 25
444 167 486 528 l6 48 49 -84 c62 -108 123 -178 154 -178 24 0 28 7 40 66 8
39 -10 184 -36 293 -48 208 -164 423 -310 578 -25 26 -66 86 -91 133 l-45 85
-140 6 c-153 7 -205 19 -228 52 -16 23 -20 74 -7 94 14 22 63 33 143 33 43 0
79 4 79 9 0 14 -77 75 -125 100 -50 25 -118 34 -165 20z m-25 -134 c30 -30 32
-58 4 -86 -27 -27 -67 -21 -92 13 -17 23 -19 31 -9 53 10 22 40 42 65 44 4 1
19 -10 32 -24z"/>
</g>
</svg>
